<svg width="1440" height="345" viewBox="0 0 1440 345" fill="none" xmlns="http://www.w3.org/2000/svg">
<rect width="1440" height="345" fill="#242323"/>
<path d="M25.008 70V63.728H28.592V39.312H25.008V33.04H39.008V39.312H35.424V63.728H39.008V70H25.008ZM82.3275 70H77.6235C73.8715 70 73.3115 68.936 73.3115 65.52V64.008C71.0155 67.536 67.6555 70.28 61.4395 70.56C52.3675 70.952 43.2955 63.952 43.2955 51.352C43.2955 37.968 52.7035 32.48 61.6075 32.48C66.0315 32.48 74.6555 33.6 77.6795 44.24H70.8475C69.7835 40.656 66.9275 38.752 61.6075 38.752C55.0555 38.752 50.1275 42.952 50.1275 51.464C50.1275 59.976 54.9995 64.288 61.5515 64.288C67.8235 64.288 73.3115 62.048 73.3115 54.488H61.5515V48.216H73.9275C78.2955 48.216 79.5835 49.28 79.5835 53.816V63.728H82.3275V70ZM89.9658 70V33.04H95.3978L112.422 56.728V33.04H119.254L119.142 70H113.71L96.7978 46.48V70H89.9658ZM126.847 70V63.728H130.431V39.312H126.847V33.04H140.847V39.312H137.263V63.728H140.847V70H126.847ZM158.495 70V39.312H148.471V33.04H175.351V39.312H165.327V70H158.495ZM187.258 70C183.506 70 182.946 68.824 182.946 65.408V37.52C182.946 34.104 183.506 33.04 187.258 33.04H209.826V39.312H189.778V49.392H207.362V55.664H189.778V63.728H209.77V70H187.258ZM278.609 55.832C276.817 64.68 269.481 70.56 260.913 70.56C250.945 70.56 242.489 62.944 242.489 51.968C242.489 40.768 250.329 32.48 260.913 32.48C269.873 32.48 276.593 38.248 278.497 46.704H271.441C269.873 41.608 265.841 38.752 260.913 38.752C254.305 38.752 249.321 43.904 249.321 51.744C249.321 58.968 253.913 64.288 260.857 64.288C266.233 64.288 270.321 61.096 271.665 55.832H278.609ZM303.454 70.56C293.542 70.56 286.206 66.024 286.206 51.464V33.04H293.038V51.464C293.038 61.432 297.462 64.288 303.454 64.288C309.894 64.288 313.646 60.704 313.646 51.464V33.04H320.478V51.464C320.478 65.856 313.926 70.56 303.454 70.56ZM328.119 37.128C328.119 34.272 329.407 33.04 332.095 33.04H341.055C351.247 33.04 353.879 38.248 353.879 44.52C353.879 49.336 351.359 52.248 348.279 52.752C352.703 54.432 353.879 57.624 353.879 62.048V70H347.047V62.048C347.047 58.016 346.319 55.664 339.935 55.664H334.951V70H328.119V37.128ZM334.951 49.392H339.935C345.199 49.392 347.047 48.776 347.047 44.52C347.047 40.488 345.591 39.312 340.495 39.312H334.951V49.392ZM361.5 70V63.728H365.084V39.312H361.5V33.04H375.5V39.312H371.916V63.728H375.5V70H361.5ZM398.212 70.56C388.244 70.56 379.788 62.944 379.788 51.968C379.788 40.768 387.628 32.48 398.212 32.48C408.852 32.48 416.3 40.6 416.3 51.632C416.3 62.776 408.068 70.56 398.212 70.56ZM386.62 51.744C386.62 58.968 391.212 64.288 398.156 64.288C404.764 64.288 409.468 59.472 409.468 51.856C409.468 43.568 404.596 38.752 398.212 38.752C391.604 38.752 386.62 43.904 386.62 51.744ZM444.564 43.736C443.108 39.928 440.084 38.752 435.94 38.752C431.796 38.752 430.228 40.432 430.228 43.12C430.228 46.256 433.532 46.704 437.732 48.16C442.268 49.784 450.836 51.016 450.836 59.808C450.836 67.312 444.452 70.56 438.628 70.56C431.292 70.56 425.748 67.76 423.452 59.136H430.34C431.74 63.056 434.82 64.288 438.628 64.288C441.764 64.288 443.948 63.336 443.948 59.808C443.948 56.728 440.028 56.224 435.828 54.768C431.348 53.144 423.396 51.856 423.396 43.12C423.396 35.504 429.22 32.48 435.94 32.48C442.772 32.48 449.436 35.56 451.564 43.736H444.564ZM459.183 70V63.728H462.767V39.312H459.183V33.04H473.183V39.312H469.599V63.728H473.183V70H459.183ZM490.83 70V39.312H480.806V33.04H507.686V39.312H497.662V70H490.83ZM515.281 33.04H522.729L531.521 49L541.265 33.04H548.713L534.825 55.664V70H527.993V55.608L515.281 33.04Z" fill="#FEFEFE"/>
<path d="M642.008 41.128C642.008 38.272 643.296 37.04 645.984 37.04H653.824C664.576 37.04 667.768 43.648 667.768 49.696C667.768 55.8 664.576 62.464 653.824 62.464H648.84V74H642.008V41.128ZM648.84 56.192H653.824C659.984 56.192 660.936 53.728 660.936 49.696C660.936 45.664 660.208 43.312 653.824 43.312H648.84V56.192ZM692.637 74.56C682.725 74.56 675.389 70.024 675.389 55.464V37.04H682.221V55.464C682.221 65.432 686.645 68.288 692.637 68.288C699.077 68.288 702.829 64.704 702.829 55.464V37.04H709.661V55.464C709.661 69.856 703.109 74.56 692.637 74.56ZM738.47 47.736C737.014 43.928 733.99 42.752 729.846 42.752C725.702 42.752 724.134 44.432 724.134 47.12C724.134 50.256 727.438 50.704 731.638 52.16C736.174 53.784 744.742 55.016 744.742 63.808C744.742 71.312 738.358 74.56 732.534 74.56C725.198 74.56 719.654 71.76 717.358 63.136H724.246C725.646 67.056 728.726 68.288 732.534 68.288C735.67 68.288 737.854 67.336 737.854 63.808C737.854 60.728 733.934 60.224 729.734 58.768C725.254 57.144 717.302 55.856 717.302 47.12C717.302 39.504 723.126 36.48 729.846 36.48C736.678 36.48 743.342 39.56 745.47 47.736H738.47ZM753.089 74V37.04H759.921V53.392H774.705V37.04H781.537V74H774.705V59.664H759.865V74H753.089ZM818.307 74C815.507 74 814.219 72.768 814.219 69.912V41.128C814.219 38.272 815.507 37.04 818.307 37.04H827.491C836.339 37.04 840.875 41.184 840.875 47.736C840.875 51.32 838.747 54.456 836.059 55.576C839.699 57.48 841.043 60.112 841.043 63.36C841.043 69.968 836.731 74 827.491 74H818.307ZM821.051 67.728H827.491C833.203 67.728 834.211 65.88 834.211 63.024C834.211 60.168 832.867 58.712 827.491 58.712H821.051V67.728ZM821.051 52.44H827.491C832.979 52.44 834.043 50.592 834.043 47.568C834.043 44.544 832.867 43.312 827.491 43.312H821.051V52.44ZM867.063 74.56C857.095 74.56 848.639 66.944 848.639 55.968C848.639 44.768 856.479 36.48 867.063 36.48C877.703 36.48 885.151 44.6 885.151 55.632C885.151 66.776 876.919 74.56 867.063 74.56ZM855.471 55.744C855.471 62.968 860.063 68.288 867.007 68.288C873.615 68.288 878.319 63.472 878.319 55.856C878.319 47.568 873.447 42.752 867.063 42.752C860.455 42.752 855.471 47.904 855.471 55.744ZM910.042 74.56C900.13 74.56 892.794 70.024 892.794 55.464V37.04H899.626V55.464C899.626 65.432 904.05 68.288 910.042 68.288C916.482 68.288 920.234 64.704 920.234 55.464V37.04H927.066V55.464C927.066 69.856 920.514 74.56 910.042 74.56ZM934.706 74V37.04H940.138L957.162 60.728V37.04H963.994L963.882 74H958.45L941.538 50.48V74H934.706ZM975.9 74C972.148 74 971.588 72.936 971.588 69.52V41.52C971.588 38.104 972.148 37.04 975.9 37.04H985.756C996.228 37.04 1004.12 42.584 1004.12 55.24C1004.12 67.84 996.284 74 985.756 74H975.9ZM978.42 67.728H985.756C992.364 67.728 997.236 63.36 997.236 55.24C997.236 45.664 992.42 43.312 985.756 43.312H978.42V67.728ZM1006.17 74L1022.47 37.04H1027.4L1043.08 74H1035.8L1031.32 63.752H1018.16L1013.51 74H1006.17ZM1021.12 57.032H1028.46L1024.93 48.352L1021.12 57.032ZM1050.71 41.128C1050.71 38.272 1052 37.04 1054.69 37.04H1063.65C1073.84 37.04 1076.47 42.248 1076.47 48.52C1076.47 53.336 1073.95 56.248 1070.87 56.752C1075.29 58.432 1076.47 61.624 1076.47 66.048V74H1069.64V66.048C1069.64 62.016 1068.91 59.664 1062.53 59.664H1057.54V74H1050.71V41.128ZM1057.54 53.392H1062.53C1067.79 53.392 1069.64 52.776 1069.64 48.52C1069.64 44.488 1068.18 43.312 1063.09 43.312H1057.54V53.392ZM1084.09 74V67.728H1087.67V43.312H1084.09V37.04H1098.09V43.312H1094.51V67.728H1098.09V74H1084.09ZM1110.03 74C1106.27 74 1105.71 72.824 1105.71 69.408V41.52C1105.71 38.104 1106.27 37.04 1110.03 37.04H1132.59V43.312H1112.55V53.392H1130.13V59.664H1112.55V67.728H1132.54V74H1110.03ZM1161.36 47.736C1159.9 43.928 1156.88 42.752 1152.73 42.752C1148.59 42.752 1147.02 44.432 1147.02 47.12C1147.02 50.256 1150.33 50.704 1154.53 52.16C1159.06 53.784 1167.63 55.016 1167.63 63.808C1167.63 71.312 1161.25 74.56 1155.42 74.56C1148.09 74.56 1142.54 71.76 1140.25 63.136H1147.13C1148.53 67.056 1151.61 68.288 1155.42 68.288C1158.56 68.288 1160.74 67.336 1160.74 63.808C1160.74 60.728 1156.82 60.224 1152.62 58.768C1148.14 57.144 1140.19 55.856 1140.19 47.12C1140.19 39.504 1146.01 36.48 1152.73 36.48C1159.57 36.48 1166.23 39.56 1168.36 47.736H1161.36Z" fill="#FEFEFE"/>
<path d="M202.008 159V152.728H205.592V128.312H202.008V122.04H216.008V128.312H212.424V152.728H216.008V159H202.008ZM223.631 159V122.04H229.063L246.087 145.728V122.04H252.919L252.807 159H247.375L230.463 135.48V159H223.631ZM281.681 132.736C280.225 128.928 277.201 127.752 273.057 127.752C268.913 127.752 267.345 129.432 267.345 132.12C267.345 135.256 270.649 135.704 274.849 137.16C279.385 138.784 287.953 140.016 287.953 148.808C287.953 156.312 281.569 159.56 275.745 159.56C268.409 159.56 262.865 156.76 260.569 148.136H267.457C268.857 152.056 271.937 153.288 275.745 153.288C278.881 153.288 281.065 152.336 281.065 148.808C281.065 145.728 277.145 145.224 272.945 143.768C268.465 142.144 260.513 140.856 260.513 132.12C260.513 124.504 266.337 121.48 273.057 121.48C279.889 121.48 286.553 124.56 288.681 132.736H281.681ZM296.3 126.128C296.3 123.272 297.588 122.04 300.276 122.04H308.116C318.868 122.04 322.06 128.648 322.06 134.696C322.06 140.8 318.868 147.464 308.116 147.464H303.132V159H296.3V126.128ZM303.132 141.192H308.116C314.276 141.192 315.228 138.728 315.228 134.696C315.228 130.664 314.5 128.312 308.116 128.312H303.132V141.192ZM329.681 159V152.728H333.265V128.312H329.681V122.04H343.681V128.312H340.097V152.728H343.681V159H329.681ZM351.305 126.128C351.305 123.272 352.593 122.04 355.281 122.04H364.241C374.433 122.04 377.065 127.248 377.065 133.52C377.065 138.336 374.545 141.248 371.465 141.752C375.889 143.432 377.065 146.624 377.065 151.048V159H370.233V151.048C370.233 147.016 369.505 144.664 363.121 144.664H358.137V159H351.305V126.128ZM358.137 138.392H363.121C368.385 138.392 370.233 137.776 370.233 133.52C370.233 129.488 368.777 128.312 363.681 128.312H358.137V138.392ZM388.998 159C385.246 159 384.686 157.824 384.686 154.408V126.52C384.686 123.104 385.246 122.04 388.998 122.04H411.566V128.312H391.518V138.392H409.102V144.664H391.518V152.728H411.51V159H388.998ZM444.23 122.04H451.622L459.294 145.168L464.894 122.04H470.158L475.702 145.168L483.374 122.04H490.766L477.774 159H472.118L467.526 140.128L462.934 159H457.222L444.23 122.04ZM512.332 159.56C502.364 159.56 493.908 151.944 493.908 140.968C493.908 129.768 501.748 121.48 512.332 121.48C522.972 121.48 530.42 129.6 530.42 140.632C530.42 151.776 522.188 159.56 512.332 159.56ZM500.74 140.744C500.74 147.968 505.332 153.288 512.276 153.288C518.884 153.288 523.588 148.472 523.588 140.856C523.588 132.568 518.716 127.752 512.332 127.752C505.724 127.752 500.74 132.904 500.74 140.744ZM538.063 159V122.04H543.495L560.519 145.728V122.04H567.351L567.239 159H561.807L544.895 135.48V159H538.063ZM579.256 159C575.504 159 574.944 157.936 574.944 154.52V126.52C574.944 123.104 575.504 122.04 579.256 122.04H589.112C599.584 122.04 607.48 127.584 607.48 140.24C607.48 152.84 599.64 159 589.112 159H579.256ZM581.776 152.728H589.112C595.72 152.728 600.592 148.36 600.592 140.24C600.592 130.664 595.776 128.312 589.112 128.312H581.776V152.728ZM619.418 159C615.666 159 615.106 157.824 615.106 154.408V126.52C615.106 123.104 615.666 122.04 619.418 122.04H641.986V128.312H621.938V138.392H639.522V144.664H621.938V152.728H641.93V159H619.418ZM649.581 126.128C649.581 123.272 650.869 122.04 653.557 122.04H662.517C672.709 122.04 675.341 127.248 675.341 133.52C675.341 138.336 672.821 141.248 669.741 141.752C674.165 143.432 675.341 146.624 675.341 151.048V159H668.509V151.048C668.509 147.016 667.781 144.664 661.397 144.664H656.413V159H649.581V126.128ZM656.413 138.392H661.397C666.661 138.392 668.509 137.776 668.509 133.52C668.509 129.488 667.053 128.312 661.957 128.312H656.413V138.392Z" fill="#FEFEFE"/>
<path d="M29.32 311C25.568 311 25.008 309.824 25.008 306.408V278.52C25.008 275.104 25.568 274.04 29.32 274.04H51.888V280.312H31.84V290.392H49.424V296.664H31.84V304.728H51.832V311H29.32ZM53.883 311V274.04H60.771L72.251 288.208L84.515 274.04H90.731V311H83.899L83.955 283.784L74.211 295.264H70.179L60.771 284.344V311H53.883ZM96.8538 311C94.0538 311 92.7658 309.768 92.7658 306.912V278.128C92.7658 275.272 94.0538 274.04 96.8538 274.04H106.038C114.886 274.04 119.422 278.184 119.422 284.736C119.422 288.32 117.294 291.456 114.606 292.576C118.246 294.48 119.59 297.112 119.59 300.36C119.59 306.968 115.278 311 106.038 311H96.8538ZM99.5978 304.728H106.038C111.75 304.728 112.758 302.88 112.758 300.024C112.758 297.168 111.414 295.712 106.038 295.712H99.5978V304.728ZM99.5978 289.44H106.038C111.526 289.44 112.59 287.592 112.59 284.568C112.59 281.544 111.414 280.312 106.038 280.312H99.5978V289.44ZM118.797 311L135.093 274.04H140.021L155.701 311H148.421L143.941 300.752H130.781L126.133 311H118.797ZM133.749 294.032H141.085L137.557 285.352L133.749 294.032ZM157.735 278.128C157.735 275.272 159.023 274.04 161.711 274.04H170.671C180.863 274.04 183.495 279.248 183.495 285.52C183.495 290.336 180.975 293.248 177.895 293.752C182.319 295.432 183.495 298.624 183.495 303.048V311H176.663V303.048C176.663 299.016 175.935 296.664 169.551 296.664H164.567V311H157.735V278.128ZM164.567 290.392H169.551C174.815 290.392 176.663 289.776 176.663 285.52C176.663 281.488 175.207 280.312 170.111 280.312H164.567V290.392ZM185.516 274.04H192.348V286.248L204.948 274.04H213.964L196.548 291.064H208.42C212.788 291.064 214.076 292.128 214.076 296.664V311H207.244V297.336H192.348V311H185.516V274.04ZM253.979 311.56C244.011 311.56 235.555 303.944 235.555 292.968C235.555 281.768 243.395 273.48 253.979 273.48C264.619 273.48 272.067 281.6 272.067 292.632C272.067 303.776 263.835 311.56 253.979 311.56ZM242.387 292.744C242.387 299.968 246.979 305.288 253.923 305.288C260.531 305.288 265.235 300.472 265.235 292.856C265.235 284.568 260.363 279.752 253.979 279.752C247.371 279.752 242.387 284.904 242.387 292.744ZM274.11 311V274.04H279.542L296.566 297.728V274.04H303.398L303.286 311H297.854L280.942 287.48V311H274.11ZM324.86 311L341.156 274.04H346.084L361.764 311H354.484L350.004 300.752H336.844L332.196 311H324.86ZM339.812 294.032H347.148L343.62 285.352L339.812 294.032ZM363.797 311V274.04H369.229L386.253 297.728V274.04H393.085L392.973 311H387.541L370.629 287.48V311H363.797ZM418.859 311C415.107 311 414.547 309.824 414.547 306.408V278.52C414.547 275.104 415.107 274.04 418.859 274.04H441.427V280.312H421.379V290.392H438.963V296.664H421.379V304.728H441.371V311H418.859ZM443.422 311L456.918 292.576L443.478 274.04H450.926L460.502 287.144L470.582 274.04H478.03L464.086 292.576L478.198 311H470.75L460.502 297.896L450.87 311H443.422ZM490.251 311V280.312H480.227V274.04H507.107V280.312H497.083V311H490.251ZM509.102 278.128C509.102 275.272 510.39 274.04 513.078 274.04H522.038C532.23 274.04 534.862 279.248 534.862 285.52C534.862 290.336 532.342 293.248 529.262 293.752C533.686 295.432 534.862 298.624 534.862 303.048V311H528.03V303.048C528.03 299.016 527.302 296.664 520.918 296.664H515.934V311H509.102V278.128ZM515.934 290.392H520.918C526.182 290.392 528.03 289.776 528.03 285.52C528.03 281.488 526.574 280.312 521.478 280.312H515.934V290.392ZM536.883 311L553.179 274.04H558.107L573.787 311H566.507L562.027 300.752H548.867L544.219 311H536.883ZM551.835 294.032H559.171L555.643 285.352L551.835 294.032ZM589.213 311.56C579.245 311.56 570.789 303.944 570.789 292.968C570.789 281.768 578.629 273.48 589.213 273.48C599.853 273.48 607.301 281.6 607.301 292.632C607.301 303.776 599.069 311.56 589.213 311.56ZM577.621 292.744C577.621 299.968 582.213 305.288 589.157 305.288C595.765 305.288 600.469 300.472 600.469 292.856C600.469 284.568 595.597 279.752 589.213 279.752C582.605 279.752 577.621 284.904 577.621 292.744ZM609.344 278.128C609.344 275.272 610.632 274.04 613.32 274.04H622.28C632.472 274.04 635.104 279.248 635.104 285.52C635.104 290.336 632.584 293.248 629.504 293.752C633.928 295.432 635.104 298.624 635.104 303.048V311H628.272V303.048C628.272 299.016 627.544 296.664 621.16 296.664H616.176V311H609.344V278.128ZM616.176 290.392H621.16C626.424 290.392 628.272 289.776 628.272 285.52C628.272 281.488 626.816 280.312 621.72 280.312H616.176V290.392ZM641.437 311C637.685 311 637.125 309.936 637.125 306.52V278.52C637.125 275.104 637.685 274.04 641.437 274.04H651.293C661.765 274.04 669.661 279.584 669.661 292.24C669.661 304.84 661.821 311 651.293 311H641.437ZM643.957 304.728H651.293C657.901 304.728 662.773 300.36 662.773 292.24C662.773 282.664 657.957 280.312 651.293 280.312H643.957V304.728ZM668.899 311V304.728H672.483V280.312H668.899V274.04H682.899V280.312H679.315V304.728H682.899V311H668.899ZM684.922 311V274.04H690.354L707.378 297.728V274.04H714.21L714.098 311H708.666L691.754 287.48V311H684.922ZM716.203 311L732.499 274.04H737.427L753.107 311H745.827L741.347 300.752H728.187L723.539 311H716.203ZM731.155 294.032H738.491L734.963 285.352L731.155 294.032ZM755.141 278.128C755.141 275.272 756.429 274.04 759.117 274.04H768.077C778.269 274.04 780.901 279.248 780.901 285.52C780.901 290.336 778.381 293.248 775.301 293.752C779.725 295.432 780.901 298.624 780.901 303.048V311H774.069V303.048C774.069 299.016 773.341 296.664 766.957 296.664H761.973V311H755.141V278.128ZM761.973 290.392H766.957C772.221 290.392 774.069 289.776 774.069 285.52C774.069 281.488 772.613 280.312 767.517 280.312H761.973V290.392ZM779.586 274.04H787.034L795.826 290L805.57 274.04H813.018L799.13 296.664V311H792.298V296.608L779.586 274.04Z" fill="#FEFEFE"/>
<path d="M933.008 311L949.304 274.04H954.232L969.912 311H962.632L958.152 300.752H944.992L940.344 311H933.008ZM947.96 294.032H955.296L951.768 285.352L947.96 294.032ZM976.258 311C972.506 311 971.946 309.936 971.946 306.52V278.52C971.946 275.104 972.506 274.04 976.258 274.04H986.114C996.586 274.04 1004.48 279.584 1004.48 292.24C1004.48 304.84 996.642 311 986.114 311H976.258ZM978.778 304.728H986.114C992.722 304.728 997.594 300.36 997.594 292.24C997.594 282.664 992.778 280.312 986.114 280.312H978.778V304.728ZM1016.7 311L1002.02 274.04H1009.42L1020.28 301.424L1031.87 274.04H1039.26L1023.3 311H1016.7ZM1045.6 311C1041.85 311 1041.29 309.824 1041.29 306.408V278.52C1041.29 275.104 1041.85 274.04 1045.6 274.04H1068.17V280.312H1048.12V290.392H1065.71V296.664H1048.12V304.728H1068.11V311H1045.6ZM1070.16 311V274.04H1075.6L1092.62 297.728V274.04H1099.45L1099.34 311H1093.91L1077 287.48V311H1070.16ZM1111.47 311V280.312H1101.45V274.04H1128.33V280.312H1118.3V311H1111.47ZM1147.57 311.56C1137.66 311.56 1130.32 307.024 1130.32 292.464V274.04H1137.15V292.464C1137.15 302.432 1141.58 305.288 1147.57 305.288C1154.01 305.288 1157.76 301.704 1157.76 292.464V274.04H1164.59V292.464C1164.59 306.856 1158.04 311.56 1147.57 311.56ZM1166.63 278.128C1166.63 275.272 1167.92 274.04 1170.61 274.04H1179.57C1189.76 274.04 1192.39 279.248 1192.39 285.52C1192.39 290.336 1189.87 293.248 1186.79 293.752C1191.22 295.432 1192.39 298.624 1192.39 303.048V311H1185.56V303.048C1185.56 299.016 1184.83 296.664 1178.45 296.664H1173.47V311H1166.63V278.128ZM1173.47 290.392H1178.45C1183.71 290.392 1185.56 289.776 1185.56 285.52C1185.56 281.488 1184.11 280.312 1179.01 280.312H1173.47V290.392ZM1198.73 311C1194.97 311 1194.41 309.824 1194.41 306.408V278.52C1194.41 275.104 1194.97 274.04 1198.73 274.04H1221.29V280.312H1201.25V290.392H1218.83V296.664H1201.25V304.728H1221.24V311H1198.73Z" fill="#FEFEFE"/>
<path d="M843.466 262.637L866.189 276.999L886.871 259.826L880.233 285.876L902.957 300.239L876.131 301.976L869.493 328.025L859.552 303.049L832.726 304.786L853.407 287.613L843.466 262.637Z" fill="#B23282"/>
<path fill-rule="evenodd" clip-rule="evenodd" d="M93.9041 93H109.079V154.096L152.833 110.343L163.563 121.073L121.714 162.921H179V178.096H118.73L159.416 222.544L148.222 232.79L109.079 190.027V248H93.9041V190.732L53.9612 230.674L43.231 219.944L85.0792 178.096H24V162.921H84.2681L43.5671 118.456L54.7607 108.21L93.9041 150.974V93Z" fill="#B23282"/>
<path fill-rule="evenodd" clip-rule="evenodd" d="M1314.57 146H1331.41V213.798L1379.96 165.245L1391.87 177.152L1345.43 223.59H1409V240.429H1342.12L1387.27 289.752L1374.85 301.122L1331.41 253.667V318H1314.57V254.451L1270.25 298.774L1258.34 286.867L1304.78 240.429H1237V223.59H1303.88L1258.71 174.248L1271.13 162.878L1314.57 210.331V146Z" fill="#B23282"/>
<path d="M599 14L604.701 39.2373L626.577 25.4228L612.763 47.2993L638 53L612.763 58.7007L626.577 80.5772L604.701 66.7627L599 92L593.299 66.7627L571.423 80.5772L585.237 58.7007L560 53L585.237 47.2993L571.423 25.4228L593.299 39.2373L599 14Z" fill="#B23282"/>
<rect x="1192" y="41" width="224" height="32" fill="#B23282"/>
<rect x="695" y="126" width="504.381" height="32" fill="#B23282"/>
<rect x="1031" y="200" width="193" height="32" fill="#B23282"/>
<path d="M476.077 179.592L480.533 208.611L509.379 214.077L480.36 218.533L474.894 247.379L470.438 218.36L441.591 212.894L470.611 208.438L476.077 179.592Z" fill="#B23282"/>
<path d="M219.256 232.56C209.344 232.56 202.008 228.024 202.008 213.464V195.04H208.84V213.464C208.84 223.432 213.264 226.288 219.256 226.288C225.696 226.288 229.448 222.704 229.448 213.464V195.04H236.28V213.464C236.28 227.856 229.728 232.56 219.256 232.56ZM243.92 232V195.04H249.352L266.377 218.728V195.04H273.208L273.097 232H267.665L250.752 208.48V232H243.92ZM280.802 232V225.728H284.386V201.312H280.802V195.04H294.802V201.312H291.218V225.728H294.802V232H280.802ZM299.089 213.968C299.089 202.768 306.929 194.48 317.513 194.48C328.153 194.48 335.601 202.6 335.601 213.632C335.601 223.152 329.553 230.264 321.657 232.112L321.041 235.08H325.297V241.184H317.625C315.217 241.184 313.145 239.728 313.873 236.2L314.657 232.336C305.977 231.048 299.089 223.88 299.089 213.968ZM305.921 213.744C305.921 220.968 310.513 226.288 317.457 226.288C324.065 226.288 328.769 221.472 328.769 213.856C328.769 205.568 323.897 200.752 317.513 200.752C310.905 200.752 305.921 205.904 305.921 213.744ZM360.492 232.56C350.58 232.56 343.244 228.024 343.244 213.464V195.04H350.076V213.464C350.076 223.432 354.5 226.288 360.492 226.288C366.932 226.288 370.684 222.704 370.684 213.464V195.04H377.516V213.464C377.516 227.856 370.964 232.56 360.492 232.56ZM389.468 232C385.716 232 385.156 230.824 385.156 227.408V199.52C385.156 196.104 385.716 195.04 389.468 195.04H412.036V201.312H391.988V211.392H409.572V217.664H391.988V225.728H411.98V232H389.468Z" fill="#FEFEFE"/>
<path d="M560.824 217.856C559.288 225.44 553 230.48 545.656 230.48C537.112 230.48 529.864 223.952 529.864 214.544C529.864 204.944 536.584 197.84 545.656 197.84C553.336 197.84 559.096 202.784 560.728 210.032H554.68C553.336 205.664 549.88 203.216 545.656 203.216C539.992 203.216 535.72 207.632 535.72 214.352C535.72 220.544 539.656 225.104 545.608 225.104C550.216 225.104 553.72 222.368 554.872 217.856H560.824ZM567.336 230V198.32H573.192V212.336H585.864V198.32H591.72V230H585.864V217.712H573.144V230H567.336ZM598.245 230L612.213 198.32H616.437L629.877 230H623.637L619.797 221.216H608.517L604.533 230H598.245ZM611.061 215.456H617.349L614.325 208.016L611.061 215.456ZM635.483 224.192V198.32H641.339V224.624H656.363V230H641.243C635.579 230 635.483 229.136 635.483 224.192ZM662.876 224.192V198.32H668.732V224.624H683.756V230H668.636C662.972 230 662.876 229.136 662.876 224.192ZM693.966 230C690.75 230 690.27 228.992 690.27 226.064V202.16C690.27 199.232 690.75 198.32 693.966 198.32H713.31V203.696H696.126V212.336H711.198V217.712H696.126V224.624H713.262V230H693.966ZM719.82 230V198.32H724.476L739.068 218.624V198.32H744.924L744.828 230H740.172L725.676 209.84V230H719.82ZM784.889 230H780.857C777.641 230 777.161 229.088 777.161 226.16V224.864C775.193 227.888 772.313 230.24 766.985 230.48C759.209 230.816 751.433 224.816 751.433 214.016C751.433 202.544 759.497 197.84 767.129 197.84C770.921 197.84 778.313 198.8 780.905 207.92H775.049C774.137 204.848 771.689 203.216 767.129 203.216C761.513 203.216 757.289 206.816 757.289 214.112C757.289 221.408 761.465 225.104 767.081 225.104C772.457 225.104 777.161 223.184 777.161 216.704H767.081V211.328H777.689C781.433 211.328 782.537 212.24 782.537 216.128V224.624H784.889V230ZM795.132 230C791.916 230 791.436 228.992 791.436 226.064V202.16C791.436 199.232 791.916 198.32 795.132 198.32H814.476V203.696H797.292V212.336H812.364V217.712H797.292V224.624H814.428V230H795.132ZM842.473 230V198.32H847.129L861.721 218.624V198.32H867.577L867.481 230H862.825L848.329 209.84V230H842.473ZM889.878 230.48C881.334 230.48 874.086 223.952 874.086 214.544C874.086 204.944 880.806 197.84 889.878 197.84C898.998 197.84 905.382 204.8 905.382 214.256C905.382 223.808 898.326 230.48 889.878 230.48ZM879.942 214.352C879.942 220.544 883.878 225.104 889.83 225.104C895.494 225.104 899.526 220.976 899.526 214.448C899.526 207.344 895.35 203.216 889.878 203.216C884.214 203.216 879.942 207.632 879.942 214.352ZM911.933 201.824C911.933 199.376 913.037 198.32 915.341 198.32H923.021C931.757 198.32 934.013 202.784 934.013 208.16C934.013 212.288 931.853 214.784 929.213 215.216C933.005 216.656 934.013 219.392 934.013 223.184V230H928.157V223.184C928.157 219.728 927.533 217.712 922.061 217.712H917.789V230H911.933V201.824ZM917.789 212.336H922.061C926.573 212.336 928.157 211.808 928.157 208.16C928.157 204.704 926.909 203.696 922.541 203.696H917.789V212.336ZM940.545 230V198.32H946.449L956.289 210.464L966.801 198.32H972.129V230H966.273L966.321 206.672L957.969 216.512H954.513L946.449 207.152V230H940.545ZM996.817 207.488C995.569 204.224 992.977 203.216 989.425 203.216C985.873 203.216 984.529 204.656 984.529 206.96C984.529 209.648 987.361 210.032 990.961 211.28C994.849 212.672 1002.19 213.728 1002.19 221.264C1002.19 227.696 996.721 230.48 991.729 230.48C985.441 230.48 980.689 228.08 978.721 220.688H984.625C985.825 224.048 988.465 225.104 991.729 225.104C994.417 225.104 996.289 224.288 996.289 221.264C996.289 218.624 992.929 218.192 989.329 216.944C985.489 215.552 978.673 214.448 978.673 206.96C978.673 200.432 983.665 197.84 989.425 197.84C995.281 197.84 1000.99 200.48 1002.82 207.488H996.817Z" fill="#FEFEFE"/>
</svg>
